<svg xmlns="http://www.w3.org/2000/svg" width="228.99" height="228.84" viewBox="0 0 228.99 228.84"><defs><style>.a{fill:#fff;}</style></defs><g transform="translate(2480.844 -2921.8)"><g transform="translate(-2480.844 2921.8)"><path class="a" d="M708.512,426.765A114.326,114.326,0,1,1,820.519,287.817a114.593,114.593,0,0,1-87.187,136.4A136.74,136.74,0,0,1,708.512,426.765Zm.424-222.529A108.133,108.133,0,0,0,650.6,403.43h0A106.089,106.089,0,0,0,708.512,420.4a107.719,107.719,0,0,0,23.335-2.546c58.125-12.728,95.036-70.641,82.308-128.766a106.325,106.325,0,0,0-47.306-67.671A104.555,104.555,0,0,0,708.936,204.236Z" transform="translate(-594.225 -197.925)"/><rect class="a" width="217.862" height="6.364" transform="matrix(0.797, -0.604, 0.604, 0.797, 25.882, 176.247)"/><g transform="translate(53.829 72.921)"><g transform="translate(88.46 62.58)"><path class="a" d="M669.225,273.331h3.606A10.956,10.956,0,0,0,661.8,262.3v3.606A7.516,7.516,0,0,1,669.225,273.331Z" transform="translate(-660.739 -261.239)"/><path class="a" d="M674.452,274.952h-5.728v-1.061a6.382,6.382,0,0,0-6.364-6.364H661.3V261.8h1.061a12.225,12.225,0,0,1,12.092,12.092Zm-3.818-2.121h1.485a10.143,10.143,0,0,0-8.91-8.91v1.485A8.554,8.554,0,0,1,670.634,272.831Z" transform="translate(-661.3 -261.8)"/></g><g transform="translate(95.885 77.429)"><rect class="a" width="3.606" height="3.606" transform="translate(1.061 0.849)"/><path class="a" d="M670.528,274.528H664.8V268.8h5.728Zm-3.606-2.121h1.485v-1.485h-1.485Z" transform="translate(-664.8 -268.8)"/></g><path class="a" d="M689.992,266.005h9.122A31.234,31.234,0,0,0,730.3,234.821a1.9,1.9,0,0,0-1.909-1.909h-8.91A31.2,31.2,0,0,0,688.3,262.4a16.65,16.65,0,0,0-11.243,6.152,38.636,38.636,0,0,0-38.4-35.851H622.109a1.9,1.9,0,0,0-1.909,1.909,38.75,38.75,0,0,0,38.609,38.608h14.637v7a17.56,17.56,0,0,0-2.333,3.182,21.167,21.167,0,0,0-29.7,3.182,21.636,21.636,0,0,0-4.667,13.152V304.4H633.14a12.94,12.94,0,0,0,0,25.88h75.308a22.062,22.062,0,0,0,0-44.124h0a21.148,21.148,0,0,0-27.578-11.243,34.321,34.321,0,0,0-3.818,2.121A13.786,13.786,0,0,1,689.992,266.005Zm9.334-3.606h-3.818l30.972-23.547A27.41,27.41,0,0,1,699.326,262.4Zm20.153-25.668H723.3l-30.972,23.547A27.251,27.251,0,0,1,719.479,236.731Zm-46.245,31.184-45.4-31.184h10.607A34.955,34.955,0,0,1,673.234,267.914Zm-49.215-29.487,45.4,31.184H658.809A34.766,34.766,0,0,1,624.018,238.428ZM705.69,288.7a2.107,2.107,0,0,0,1.7,1.273h1.061a18.456,18.456,0,0,1,0,36.911H633.14a9.122,9.122,0,0,1,0-18.244h5.516a1.9,1.9,0,0,0,1.909-1.909v-6.364a17.474,17.474,0,0,1,17.4-17.4,18.4,18.4,0,0,1,12.516,5.091,1.936,1.936,0,0,0,2.546,0c.212-.212.212-.424.424-.636a17.735,17.735,0,0,1,23.123-8.7,18.335,18.335,0,0,1,9.122,9.97Z" transform="translate(-618.927 -231.851)"/><path class="a" d="M709.121,332H633.6a14,14,0,0,1,0-28h2.546V300.4a21.467,21.467,0,0,1,4.879-13.789,22.282,22.282,0,0,1,30.335-4.243c.424-.636,1.061-1.273,1.485-1.909v-5.516H659.269A39.745,39.745,0,0,1,619.6,235.27a2.9,2.9,0,0,1,2.97-2.97h16.546a39.759,39.759,0,0,1,39.245,34.366A16.314,16.314,0,0,1,687.907,262a32.2,32.2,0,0,1,32.245-29.7h9.122a2.9,2.9,0,0,1,2.97,2.97A32.23,32.23,0,0,1,700,267.514h-9.122a11.987,11.987,0,0,0-11.031,7.637c.636-.212,1.061-.636,1.7-.849a22.06,22.06,0,0,1,28.638,11.243,23.116,23.116,0,0,1,15.7,6.788,22.781,22.781,0,0,1,6.788,16.334A23.684,23.684,0,0,1,725.88,325,23.446,23.446,0,0,1,709.121,332Zm-75.308-25.88a11.88,11.88,0,0,0,0,23.759h75.308a20.868,20.868,0,0,0,14.849-6.152,20.512,20.512,0,0,0,6.152-14.849,20.868,20.868,0,0,0-6.152-14.849,20.512,20.512,0,0,0-14.849-6.152h-.636l-.212-.636a19.876,19.876,0,0,0-26.092-10.607,29.64,29.64,0,0,0-3.606,1.909l-1.909,1.273.424-2.333a14.1,14.1,0,0,1,13.789-11.88H700a30.239,30.239,0,0,0,30.123-30.123.913.913,0,0,0-.849-.849h-9.122a30.208,30.208,0,0,0-30.123,28.426v.849h-.849a15.043,15.043,0,0,0-10.607,5.94l-1.7,2.121-.212-2.758a37.653,37.653,0,0,0-37.336-34.79H622.782a.913.913,0,0,0-.849.849,37.617,37.617,0,0,0,37.548,37.548h15.7V281.3l-.212.212a16.019,16.019,0,0,0-2.333,2.97L672,285.546l-.849-.849a19.979,19.979,0,0,0-28.214,3.182A20.948,20.948,0,0,0,638.48,300.4v5.728h-4.667Zm75.308,22.062H633.813A10.185,10.185,0,0,1,623.631,318a10.324,10.324,0,0,1,10.182-10.182h5.516a.913.913,0,0,0,.849-.848v-6.364a18.469,18.469,0,0,1,18.456-18.456h0a18.117,18.117,0,0,1,13.152,5.515c.212.212.212.212.636.212a.779.779,0,0,0,.636-.212l.212-.212a18.552,18.552,0,0,1,24.607-9.122,19.2,19.2,0,0,1,7.637,6.576v-1.7l2.121,5.728c.212.212.424.424.636.424h1.061a19.465,19.465,0,0,1,19.516,19.516A19.743,19.743,0,0,1,709.121,328.185Zm-75.308-18.244a8.061,8.061,0,0,0,0,16.122h75.308a17.4,17.4,0,1,0,0-34.79h-1.7V295.3l-2.121-5.94a16.746,16.746,0,0,0-8.7-9.546,16.143,16.143,0,0,0-21.638,8.061,2.928,2.928,0,0,1-.636.849,2.724,2.724,0,0,1-2.121.849h0a2.724,2.724,0,0,1-2.121-.849,15.851,15.851,0,0,0-11.667-4.879h0a16.341,16.341,0,0,0-16.334,16.334v6.364a2.9,2.9,0,0,1-2.97,2.97h-5.3Zm39.669-38.609h-14a36.067,36.067,0,0,1-35.851-32.244l-.212-2.333ZM626.176,241.21a33.727,33.727,0,0,0,33.305,28h7.213Zm49,29.487-50.064-34.578h14a36.067,36.067,0,0,1,35.851,32.244ZM631.9,238.24l40.518,28a33.727,33.727,0,0,0-33.305-28ZM700,263.908h-6.788l35.639-27.153-.424,2.546A29.105,29.105,0,0,1,700,263.908Zm-.636-2.121H700a26.8,26.8,0,0,0,25.668-19.941Zm-7.849,1.485.424-2.546a28.939,28.939,0,0,1,28.426-24.608h6.788Zm28.638-25.032a26.8,26.8,0,0,0-25.668,19.941l26.3-19.941Z" transform="translate(-619.6 -232.3)"/></g></g></g></svg>