<svg xmlns="http://www.w3.org/2000/svg" width="229.003" height="228.794" viewBox="0 0 229.003 228.794"><defs><style>.a{fill:#fff;}.b{fill:#09b7c8;}</style></defs><g transform="translate(2818.987 -2927.574)"><path class="a" d="M530.95,204.2a21.85,21.85,0,1,0,21.85,21.85h0A21.819,21.819,0,0,0,530.95,204.2Z" transform="translate(-3170.524 2730.911)"/><path class="a" d="M549.112,429.441a114.319,114.319,0,0,1-96.1-176.072c33.942-53.034,105.007-68.732,158.04-34.79a114.345,114.345,0,0,1-37.124,208.1A123.563,123.563,0,0,1,549.112,429.441Zm.212-222.529a108.133,108.133,0,0,0-58.337,199.194h0A106.088,106.088,0,0,0,548.9,423.077,107.973,107.973,0,0,0,654.543,291.765a108.525,108.525,0,0,0-105.219-84.854Z" transform="translate(-3253.812 2726.927)"/><path class="b" d="M516.046,216.86a2.451,2.451,0,0,0-2.546,2.546,2.3,2.3,0,0,0,.849,1.909l6.576,6.576a2.689,2.689,0,0,0,1.909.849,2.3,2.3,0,0,0,1.909-.849L537.9,214.527a2.439,2.439,0,0,0,0-3.606h0a2.689,2.689,0,0,0-3.818,0l-11.455,11.455-4.667-4.667A2.592,2.592,0,0,0,516.046,216.86Z" transform="translate(-3165.591 2737.555)"/><g transform="translate(-2760.067 2998.751)"><path class="a" d="M477.874,234.2h80.611a15.6,15.6,0,0,1,10.819,4.455h0a15.225,15.225,0,0,1,4.455,10.819v55.791a15.605,15.605,0,0,1-4.455,10.819h0a15.225,15.225,0,0,1-10.819,4.455H477.874a15.6,15.6,0,0,1-10.819-4.455h0a15.225,15.225,0,0,1-4.455-10.819V249.474a15.6,15.6,0,0,1,4.455-10.819h0a15.225,15.225,0,0,1,10.819-4.455Zm80.4,6.152H477.662a10.569,10.569,0,0,0-6.576,2.546,9.127,9.127,0,0,0-2.546,6.576v55.791a10.112,10.112,0,0,0,2.546,6.576h0a8.635,8.635,0,0,0,6.364,2.546h80.611a10.112,10.112,0,0,0,6.576-2.546h0a9.126,9.126,0,0,0,2.546-6.576V249.474a10.569,10.569,0,0,0-2.546-6.576,8.309,8.309,0,0,0-6.364-2.546ZM486.783,293.6V246.5H494V293.6Zm55.367,14.637V261.141h7.425v47.094Zm-18.456-34.578H529a8.821,8.821,0,0,1,6.788,2.97h0a9.619,9.619,0,0,1,2.97,7V297.2a9.151,9.151,0,0,1-2.97,6.788h0A9.813,9.813,0,0,1,529,306.75H483.6a9.813,9.813,0,0,1-6.788-2.758h0a9.813,9.813,0,0,1-2.758-6.788v-8.91h7.213v8.91a2.409,2.409,0,0,0,.636,1.7h0a2.409,2.409,0,0,0,1.7.636H529a2.409,2.409,0,0,0,1.7-.636h0a2.619,2.619,0,0,0,.849-1.7V283.627a1.929,1.929,0,0,0-.849-1.7h0a2.619,2.619,0,0,0-1.7-.849H506.936a9.436,9.436,0,0,1-6.788-2.758h0a10.533,10.533,0,0,1-2.97-7V257.747a9.151,9.151,0,0,1,2.97-6.788h0a9.813,9.813,0,0,1,6.788-2.758h45.4a9.437,9.437,0,0,1,6.788,2.758h0a10.45,10.45,0,0,1,2.97,6.788v9.122h-7.425v-9.122a2.409,2.409,0,0,0-.636-1.7h0a2.409,2.409,0,0,0-1.7-.636h-45.4a2.409,2.409,0,0,0-1.7.636h0a2.409,2.409,0,0,0-.636,1.7v13.577a2.409,2.409,0,0,0,.636,1.7h0a2.409,2.409,0,0,0,1.7.636h16.759Z" transform="translate(-462.6 -234.2)"/></g></g></svg>