<svg xmlns="http://www.w3.org/2000/svg" width="228.99" height="228.84" viewBox="0 0 228.99 228.84"><defs><style>.a{fill:#fff;}</style></defs><g transform="translate(3184 -1667)"><g transform="translate(-3185.625 1663.475)"><path class="a" d="M116.018,232.365A114.3,114.3,0,0,1,19.832,56.293,114.478,114.478,0,0,1,227.917,93.417c13.589,61.519-25.48,122.826-87.268,136.4A119.847,119.847,0,0,1,116.018,232.365Zm.425-222.53a108.113,108.113,0,0,0-58.6,199.195h0A106.258,106.258,0,0,0,115.806,226a107.918,107.918,0,0,0,23.356-2.546c58.179-12.728,95.125-70.641,82.385-128.766a105.793,105.793,0,0,0-47.138-67.671A107,107,0,0,0,116.443,9.836Z" transform="translate(0 0)"/><g transform="translate(27.476 66.688)"><path class="a" d="M91.2,51.589A13.8,13.8,0,1,0,77.4,65.378,13.768,13.768,0,0,0,91.2,51.589ZM77.4,59.65a8.061,8.061,0,1,1,8.069-8.061A8.061,8.061,0,0,1,77.4,59.65Z" transform="translate(42.141 -28.254)"/><path class="a" d="M71.571,51.4a2.733,2.733,0,0,0-2.76,2.97v2.546a2.9,2.9,0,0,0,2.973,2.97h0a2.071,2.071,0,0,0,1.911-.849,2.722,2.722,0,0,0,.849-2.121V54.37a3.189,3.189,0,0,0-2.973-2.97Z" transform="translate(47.972 -13.004)"/><path class="a" d="M77.1,45.758a2.722,2.722,0,0,0,.849,2.121,2.463,2.463,0,0,0,2.123.849h2.548a2.911,2.911,0,0,0,2.76-2.758,2.722,2.722,0,0,0-.849-2.121A2.463,2.463,0,0,0,82.408,43H79.86a2.727,2.727,0,0,0-2.123.849A2.592,2.592,0,0,0,77.1,45.758Z" transform="translate(57.306 -22.423)"/><path class="a" d="M66.459,48.9a2.692,2.692,0,0,0-1.911.849l-1.7,1.7a2.97,2.97,0,0,0,2.123,5.091,3.044,3.044,0,0,0,2.123-.849l1.7-1.7a2.756,2.756,0,0,0,0-4.031A2.706,2.706,0,0,0,66.459,48.9Z" transform="translate(40.344 -15.807)"/><path class="a" d="M64.548,42.876a2.727,2.727,0,0,0,2.123.849,3.044,3.044,0,0,0,2.123-.849,2.948,2.948,0,0,0,0-4.031l-1.7-1.7a2.727,2.727,0,0,0-2.123-.849A2.9,2.9,0,0,0,62,39.27a3.767,3.767,0,0,0,.849,2.121Z" transform="translate(40.344 -29.936)"/><path class="a" d="M62.185,48.728h2.548a2.911,2.911,0,0,0,2.76-2.758,2.722,2.722,0,0,0-.849-2.121A2.463,2.463,0,0,0,64.521,43H61.973a2.727,2.727,0,0,0-2.123.849A2.3,2.3,0,0,0,59,45.758a2.722,2.722,0,0,0,.849,2.121A3.866,3.866,0,0,0,62.185,48.728Z" transform="translate(36.974 -22.423)"/><path class="a" d="M77.36,55.688a2.727,2.727,0,0,0,2.123.849,3.044,3.044,0,0,0,2.123-.849,3.074,3.074,0,0,0,0-4.243l-1.911-1.7a2.727,2.727,0,0,0-2.123-.849A2.9,2.9,0,0,0,74.6,51.87a3.767,3.767,0,0,0,.849,2.121Z" transform="translate(54.498 -15.807)"/><path class="a" d="M187.912,107.813H116.781l9.767-9.758a3.064,3.064,0,0,0-.425,1.485,2.722,2.722,0,0,0,.849,2.121,2.463,2.463,0,0,0,2.123.849h58.816a3,3,0,0,0,2.973-2.758,2.86,2.86,0,0,0-2.76-2.97H129.1a5,5,0,0,0-1.7.424l44.377-44.124.212,4.455a2.975,2.975,0,0,0,5.945-.212l-.425-11.031a2.756,2.756,0,0,0-1.7-2.546H175.6a2.7,2.7,0,0,0-1.274-.212l-9.98-.424V42.9h-1.062a2.693,2.693,0,0,0-1.911.849,3.767,3.767,0,0,0-.849,2.121,2.809,2.809,0,0,0,2.76,2.758l4.459.212-52.658,52.609L97.246,83.418l11.891-11.88.212,4.455a2.86,2.86,0,0,0,2.973,2.758,2.733,2.733,0,0,0,2.76-2.97l-.425-11.031a3.31,3.31,0,0,0-1.7-2.758h-.212a2.7,2.7,0,0,0-1.274-.212l-10.829-.424h-.212a2.692,2.692,0,0,0-1.911.849,3.767,3.767,0,0,0-.849,2.121,2.809,2.809,0,0,0,2.76,2.758l4.459.212L93,79.175l-9.555-9.546a2.727,2.727,0,0,0-2.123-.849H80.9a2.913,2.913,0,0,0-.849-2.546l-3.4-3.394a2.727,2.727,0,0,0-2.123-.849H74.1v-.424a2.722,2.722,0,0,0-.849-2.121l-3.4-3.394a2.919,2.919,0,0,0-2.548-.849V54.78a2.722,2.722,0,0,0-.849-2.121l-3.4-3.394a2.727,2.727,0,0,0-2.123-.849h0a2.9,2.9,0,0,0-2.973,2.97,3.767,3.767,0,0,0,.849,2.121l3.4,3.394a2.727,2.727,0,0,0,2.123.849h.425v.424a3.767,3.767,0,0,0,.849,2.121l3.4,3.394a2.919,2.919,0,0,0,2.548.849v.424a3.767,3.767,0,0,0,.849,2.121l3.4,3.394a2.919,2.919,0,0,0,2.548.849v.424a3.767,3.767,0,0,0,.849,2.121l9.555,9.546L70.7,101.449,39.28,69.841a2.919,2.919,0,0,0-2.548-.849,2.913,2.913,0,0,0-.849-2.546l-3.4-3.394a2.919,2.919,0,0,0-2.548-.849V61.78a2.722,2.722,0,0,0-.849-2.121l-3.4-3.394a2.919,2.919,0,0,0-2.548-.849v-.424a2.722,2.722,0,0,0-.849-2.121l-3.4-3.394a2.727,2.727,0,0,0-2.123-.849h0A2.9,2.9,0,0,0,13.8,51.6a3.767,3.767,0,0,0,.849,2.121l3.4,3.394a2.306,2.306,0,0,0,1.911.849h.637v.424a3.767,3.767,0,0,0,.849,2.121l3.4,3.394a2.919,2.919,0,0,0,2.548.849v.424a2.722,2.722,0,0,0,.849,2.121l3.4,3.394a2.919,2.919,0,0,0,2.548.849v.424a3.767,3.767,0,0,0,.849,2.121L58.177,97.207H17.41a2.727,2.727,0,0,0-2.123.849,2.3,2.3,0,0,0-.849,1.909,2.722,2.722,0,0,0,.849,2.121,2.463,2.463,0,0,0,2.123.849H57.328a3,3,0,0,0,2.973-2.758v-.849l8.706,8.485.212.212.425-.636.212-.212h0l-.637.849h-51.6a2.97,2.97,0,1,0,0,5.94h170.5A2.9,2.9,0,0,0,191.1,111,3.259,3.259,0,0,0,187.912,107.813Zm-72.405-.636Zm-45.014,0Zm1.062,0Zm-.212,0,.425.636h-.212l-.212-.636Zm30.576-10.395H83.657L93,87.448l9.343,9.334C102.342,96.994,102.13,96.782,101.918,96.782Zm-20.6,2.546v.212a2.722,2.722,0,0,0,.849,2.121,2.463,2.463,0,0,0,2.123.849h17.624a3,3,0,0,0,2.973-2.758V98.9l8.493,8.485.425.424H72.616Zm-11.254,7.849-.212.849h-.212Zm117.844-9.334Z" transform="translate(-13.8 -22.535)"/><path class="a" d="M71.573,41.785h0a2.9,2.9,0,0,0,2.973-2.97V36.27a2.722,2.722,0,0,0-.849-2.121,2.6,2.6,0,0,0-1.911-.849h-.212a2.86,2.86,0,0,0-2.76,2.97v2.546A2.624,2.624,0,0,0,71.573,41.785Z" transform="translate(47.97 -33.3)"/><path class="a" d="M77.573,43.837a3.044,3.044,0,0,0,2.123-.849l1.7-1.7A2.97,2.97,0,0,0,79.271,36.2a2.692,2.692,0,0,0-1.911.849l-1.911,1.7a3.074,3.074,0,0,0,0,4.243A4.486,4.486,0,0,0,77.573,43.837Z" transform="translate(54.498 -30.048)"/></g></g></g></svg>