<svg xmlns="http://www.w3.org/2000/svg" width="229.003" height="228.84" viewBox="0 0 229.003 228.84"><defs><style>.a{fill:#fff;}</style></defs><g transform="translate(3160.736 -2555.444)"><g transform="translate(-3102.028 2641.941)"><path class="a" d="M303.733,111.4h12.516a2.354,2.354,0,0,0,2.333-2.333v-3.606h16.971A18.6,18.6,0,0,1,345.312,108a25.05,25.05,0,0,0,7.849,2.97h.424a1.929,1.929,0,0,0,1.7-.849,2.613,2.613,0,0,0,.424-2.121l-2.758-8.91,3.394-3.182-.636,4.243a2.691,2.691,0,0,0,.212,1.273l3.606,7.849a2.164,2.164,0,0,0,2.546,1.273A30.285,30.285,0,0,0,368.647,108a18.6,18.6,0,0,1,9.758-2.546h16.971v3.606a2.354,2.354,0,0,0,2.334,2.333h12.516a2.354,2.354,0,0,0,2.333-2.333V68.333A2.354,2.354,0,0,0,410.225,66H397.709a2.354,2.354,0,0,0-2.334,2.333V71.94H378.4a18.6,18.6,0,0,1-9.758-2.546,22.981,22.981,0,0,0-23.335,0,18.6,18.6,0,0,1-9.758,2.546H318.583V68.333A2.354,2.354,0,0,0,316.25,66H303.734a2.354,2.354,0,0,0-2.333,2.333v40.73A2.692,2.692,0,0,0,303.733,111.4Zm96.521-40.73h8.061v36.275h-8.061V70.667Zm-64.7,5.728a22.865,22.865,0,0,0,12.092-3.182,18.384,18.384,0,0,1,18.668,0A22.865,22.865,0,0,0,378.4,76.395h16.971V101H378.4a22.865,22.865,0,0,0-12.092,3.182,18.8,18.8,0,0,1-3.606,1.7l-2.546-5.516,1.7-9.97a2.133,2.133,0,0,0-1.061-2.333,1.962,1.962,0,0,0-2.546.424l-9.334,8.485a2.394,2.394,0,0,0-.636,2.333l1.909,6.364-2.546-1.273a22.865,22.865,0,0,0-12.092-3.182H318.583V76.395Zm-29.487-5.728h8.061v36.275h-8.061Z" transform="translate(-301.4 -66)"/><path class="a" d="M337.122,103.469c0-3.606-4.667-11.031-6.152-13.364a2.387,2.387,0,0,0-3.818,0C325.667,92.226,321,99.863,321,103.469a8.058,8.058,0,0,0,8.061,8.061A8.2,8.2,0,0,0,337.122,103.469Zm-11.455,0c0-1.061,1.485-4.455,3.394-7.637,1.909,3.182,3.394,6.576,3.394,7.637a3.351,3.351,0,0,1-3.394,3.394A3.65,3.65,0,0,1,325.667,103.469Z" transform="translate(-279.422 -40.041)"/><path class="a" d="M348.068,110.027c0-4.455-6.152-14.213-7.425-16.122a2.386,2.386,0,0,0-3.818,0c-1.273,1.909-7.425,11.88-7.425,16.122a9.417,9.417,0,0,0,9.334,9.334A9.28,9.28,0,0,0,348.068,110.027Zm-14,0c0-1.7,2.333-6.364,4.879-10.607,2.546,4.455,4.879,9.122,4.879,10.607a4.8,4.8,0,0,1-4.879,4.879A4.934,4.934,0,0,1,334.067,110.027Z" transform="translate(-270.002 -35.78)"/></g><path class="a" d="M388.012,254.065A114.386,114.386,0,0,1,363.829,27.929a112.987,112.987,0,0,1,86.127,15.486,114.219,114.219,0,0,1-37.124,207.892A109.9,109.9,0,0,1,388.012,254.065Zm.424-222.529A108.133,108.133,0,0,0,330.1,230.73h0A106.088,106.088,0,0,0,388.012,247.7a108.419,108.419,0,0,0,91.218-49.852,105.925,105.925,0,0,0,14.425-81.46A108.525,108.525,0,0,0,388.436,31.536Z" transform="translate(-3434.461 2530.219)"/><rect class="a" width="217.862" height="6.364" transform="translate(-3135.136 2731.951) rotate(-37.144)"/></g></svg>