<svg xmlns="http://www.w3.org/2000/svg" width="229.003" height="228.793" viewBox="0 0 229.003 228.793"><defs><style>.a{fill:#fff;}</style></defs><g transform="translate(3508 -2555.49)"><g transform="translate(-3508 2555.49)"><g transform="translate(64.435 52.085)"><g transform="translate(23.759 36.063)"><path class="a" d="M177.9,119.409a26.3,26.3,0,1,1,26.3-26.3h0A26.3,26.3,0,0,1,177.9,119.409Zm0-48.155a21.85,21.85,0,1,0,21.85,21.85h0A21.819,21.819,0,0,0,177.9,71.255Z" transform="translate(-151.6 -66.8)"/><path class="a" d="M160.746,81.56a2.451,2.451,0,0,0-2.546,2.546,2.3,2.3,0,0,0,.849,1.909l6.576,6.576a2.689,2.689,0,0,0,1.909.849,2.3,2.3,0,0,0,1.909-.849L182.6,79.227a2.439,2.439,0,0,0,0-3.606h0a2.689,2.689,0,0,0-3.818,0L167.322,87.076l-4.667-4.667A3.812,3.812,0,0,0,160.746,81.56Z" transform="translate(-144.199 -57.801)"/></g><path class="a" d="M235.424,68.556c-16.334,0-30.547-5.728-43.912-17.4L190.24,50.1l-1.273,1.061c-13.365,11.667-27.577,17.4-43.912,17.4H140.6v29.7c0,33.729,19.092,63.216,48.791,75.1l.636.212h0l.636-.212c29.7-11.88,48.791-41.366,48.791-75.1v-29.7Zm.212,29.911c0,32.244-17.4,59.186-45.185,70.641-28-11.455-45.185-38.609-45.185-70.641V72.586h.212c16.759,0,31.4-5.516,45.185-16.971,13.577,11.455,28.426,16.971,45.185,16.971h.212v25.88Z" transform="translate(-140.176 -49.464)"/><path class="a" d="M190.676,174.323l-1.061-.212C159.7,162.231,140.4,132.533,140.4,98.591V68.256h4.879c16.122,0,30.335-5.515,43.7-17.183l1.485-1.273,1.485,1.273c13.365,11.455,27.577,17.183,43.7,17.183h4.879V98.379c0,33.942-19.3,63.64-49.215,75.52Zm-.212-1.061h0l.636-.212c29.487-11.667,48.367-40.942,48.367-74.459V69.316h-3.818c-16.334,0-30.76-5.728-44.336-17.4l-.849-.849-.849.636c-13.577,11.667-28,17.4-44.336,17.4h-3.818V98.167c0,33.517,19.092,62.792,48.367,74.459Zm0-3.182h0c-28.426-11.667-45.821-39.033-45.821-71.277V72.5h.424c16.759,0,31.4-5.515,44.973-16.971l.424-.212.424.212C204.465,66.983,219.1,72.5,235.648,72.5h.424l.212.424V98.8c0,32.244-17.4,59.61-45.821,71.277ZM145.7,73.559V98.8c0,31.82,17.183,58.549,44.76,70.217,27.577-11.455,44.76-38.4,44.76-70.217V73.559c-16.759-.212-31.184-5.728-44.76-16.759C177.1,67.831,162.462,73.347,145.7,73.559Z" transform="translate(-140.4 -49.8)"/></g><path class="a" d="M224.312,254.041a114.318,114.318,0,0,1-96.1-176.072c33.942-53.034,105.007-68.732,158.04-34.79a114.219,114.219,0,0,1-37.124,207.892A96.975,96.975,0,0,1,224.312,254.041Zm.424-222.317A108.133,108.133,0,0,0,166.4,230.918h0a106.088,106.088,0,0,0,57.913,16.971A107.973,107.973,0,0,0,329.955,116.577a106.325,106.325,0,0,0-47.306-67.671A105.366,105.366,0,0,0,224.736,31.723Z" transform="translate(-110.025 -25.247)"/></g></g></svg>