<svg xmlns="http://www.w3.org/2000/svg" width="229.003" height="228.794" viewBox="0 0 229.003 228.794"><defs><style>.a{fill:#fff;}.b{fill:#09b7c8;}</style></defs><g transform="translate(3170.07 -2927.574)"><path class="a" d="M365.45,204.2a21.85,21.85,0,1,0,21.85,21.85h0A21.819,21.819,0,0,0,365.45,204.2Z" transform="translate(-3356.107 2730.911)"/><path class="a" d="M383.612,429.441a114.319,114.319,0,0,1-96.1-176.072c33.942-53.034,105.007-68.732,158.04-34.79a114.515,114.515,0,0,1,34.79,158.04c-16.334,25.88-42,43.488-71.914,50.064A123.562,123.562,0,0,1,383.612,429.441Zm.212-222.529a108.133,108.133,0,0,0-58.337,199.194h0A106.089,106.089,0,0,0,383.4,423.077,107.973,107.973,0,0,0,489.043,291.765a108.525,108.525,0,0,0-105.219-84.854Z" transform="translate(-3439.395 2726.927)"/><g transform="translate(-3108.392 2985.517)"><path class="a" d="M308.958,266.949a2.024,2.024,0,0,0-2.546-.636l-.636.636-5.516,9.97a8.774,8.774,0,0,0-1.061,4.031,7.956,7.956,0,1,0,15.91-.212,8.643,8.643,0,0,0-1.061-3.818Zm-1.7,18.456a4.53,4.53,0,0,1-4.455-4.667,4.094,4.094,0,0,1,.636-2.121l3.818-7.213,3.818,7.213a4.276,4.276,0,0,1,.636,2.333A4.481,4.481,0,0,1,307.261,285.4Z" transform="translate(-297.503 -185.194)"/><path class="a" d="M401.922,329.868h-5.3V269.2a1.673,1.673,0,0,0-1.7-1.7h-5.3v-8.91a16.427,16.427,0,0,0-11.455-15.7L333.19,228.256a6.13,6.13,0,0,0-7.637,4.031,6.012,6.012,0,0,0,3.818,7.637l33.093,11.031a7.941,7.941,0,0,1,5.3,5.94h-1.485a1.673,1.673,0,0,0-1.7,1.7v8.91h-5.516a1.673,1.673,0,0,0-1.7,1.7v8.91H310.916A12.4,12.4,0,0,0,298.4,290.623v10.819a1.673,1.673,0,0,0,1.7,1.7h17.819a1.673,1.673,0,0,0,1.7-1.7v-8.91h37.548v37.336h-5.3a1.673,1.673,0,0,0-1.7,1.7v7.213a1.673,1.673,0,0,0,1.7,1.7h50.064a1.673,1.673,0,0,0,1.7-1.7v-7.213C403.831,330.717,402.982,329.868,401.922,329.868Zm-38.184-82.52-33.093-11.031a2.482,2.482,0,0,1-1.7-2.333,2.58,2.58,0,0,1,2.546-2.546,1.6,1.6,0,0,1,.849.212l44.973,14.637a13.179,13.179,0,0,1,8.91,10.607H372.011A13.479,13.479,0,0,0,363.737,247.348Zm4.243,12.94H385.8V267.5H367.98Zm-51.761,39.245H302.006V292.32h14.213Zm44.76-7.213h3.606v-3.606H302.218a8.852,8.852,0,0,1,8.7-7.213H367.98V277.9h-7.213v-7.213h32.244v59.186H360.768V292.32Zm39.245,44.76H353.767v-3.606h46.457Z" transform="translate(-298.4 -227.961)"/><path class="a" d="M345.21,249.9H336.3v3.606h7.213v5.3h3.606V251.6A1.87,1.87,0,0,0,345.21,249.9Z" transform="translate(-255.901 -203.36)"/><rect class="a" width="3.606" height="39.245" transform="translate(87.612 59.056)"/></g><path class="b" d="M350.546,216.86A2.451,2.451,0,0,0,348,219.406a2.3,2.3,0,0,0,.848,1.909l6.576,6.576a2.689,2.689,0,0,0,1.909.849,2.3,2.3,0,0,0,1.909-.849L372.4,214.527a2.439,2.439,0,0,0,0-3.606h0a2.689,2.689,0,0,0-3.818,0l-11.455,11.455-4.667-4.667A2.591,2.591,0,0,0,350.546,216.86Z" transform="translate(-3351.173 2737.555)"/></g></svg>