<svg xmlns="http://www.w3.org/2000/svg" width="229.867" height="229.629" viewBox="0 0 229.867 229.629"><defs><style>.a{fill:#fff;}</style></defs><g transform="translate(2831.468 -2555.079)"><path class="a" d="M482.1,236.651a113.9,113.9,0,0,0,61.731,18.031,108.573,108.573,0,0,0,24.82-2.758A114.931,114.931,0,1,0,482.1,236.651ZM648.837,117.007A107.307,107.307,0,0,1,461.1,208.225l33.942-25.88-9.546,15.274h0a9.741,9.741,0,0,0,8.485,14.637H594.53a9.732,9.732,0,0,0,9.758-9.758,9.854,9.854,0,0,0-1.273-4.879h0L577.56,157.1l-15.274-26.517,69.156-52.822A109.09,109.09,0,0,1,648.837,117.007ZM541.5,113.825h-5.3v-1.7h5.3a3.818,3.818,0,0,0,0-7.637h-5.3v-1.7h5.3a3.818,3.818,0,0,0,0-7.637h-5.3v-1.7h5.3a3.8,3.8,0,0,0,3.818-3.818c0-2.121-1.7-3.182-3.818-3.182h-5.3V84.338h0a3.8,3.8,0,0,0-3.818-3.818h-.424v-5.3H555.71v5.3h-.424a3.8,3.8,0,0,0-3.818,3.818h0v41.578a4.871,4.871,0,0,0,.849,2.97l-30.547,23.335,13.364-23.335a5.112,5.112,0,0,0,.849-3.182v-4.455h5.3a3.8,3.8,0,0,0,3.818-3.818,3.575,3.575,0,0,0-3.606-3.606Zm14.849,21.426L571.2,160.919h0l25.032,40.518a2.4,2.4,0,0,1-.849,3.182,2.306,2.306,0,0,1-1.061.212H493.767a2.354,2.354,0,0,1-2.334-2.333,1.59,1.59,0,0,1,.212-1.061L511.586,169.4ZM520.92,35.123a106.725,106.725,0,0,1,105.855,36.7L559.1,123.583V87.308a5.919,5.919,0,0,0,4.031-5.728V73.731a6.156,6.156,0,0,0-6.152-6.152H530.466a6.156,6.156,0,0,0-6.152,6.152V81.58a6.208,6.208,0,0,0,4.03,5.728V125.28L510.1,157.1l-4.455,7.213-49.427,37.76a105.165,105.165,0,0,1-17.183-39.245C426.308,105.127,463.007,47.851,520.92,35.123Z" transform="translate(-3260.41 2530.026)"/></g></svg>