<svg xmlns="http://www.w3.org/2000/svg" width="228.99" height="228.793" viewBox="0 0 228.99 228.793"><defs><style>.a{fill:#fff;}</style></defs><g transform="translate(2489.966 -2555.49)"><rect class="a" width="217.862" height="6.364" transform="translate(-2464.115 2731.929) rotate(-37.156)"/><path class="a" d="M704.212,254.041a114.319,114.319,0,0,1-96.1-176.072c33.941-53.034,105.007-68.732,158.04-34.79a114.395,114.395,0,0,1-37.124,208.1A107.271,107.271,0,0,1,704.212,254.041Zm.424-222.317A108.133,108.133,0,0,0,646.3,230.918h0a106.271,106.271,0,0,0,58.125,16.971,107.72,107.72,0,0,0,23.335-2.546c58.125-12.728,95.036-70.641,82.308-128.766A108.522,108.522,0,0,0,704.636,31.723Z" transform="translate(-3079.891 2530.243)"/><g transform="translate(-2428.713 2608.179)"><path class="a" d="M679.212,64.967a2.916,2.916,0,0,0-2.121,1.7H673.06a10.21,10.21,0,0,0-1.7-3.394l2.121-2.546a2.206,2.206,0,1,0-.849-3.606,1.987,1.987,0,0,0-.424,2.333l-2.546,2.121a10.86,10.86,0,0,0-4.455-2.121L665.635,55a2.508,2.508,0,0,0,1.909-1.909,2.5,2.5,0,1,0-4.879-1.061,2.433,2.433,0,0,0,1.061,2.546l-1.485,4.667a2.691,2.691,0,0,0-1.273.212l-2.758.636-.636-2.333a1.713,1.713,0,0,0,.849-1.909,2.066,2.066,0,0,0-2.121-1.7,1.927,1.927,0,0,0-1.7,2.121,1.588,1.588,0,0,0,1.273,1.485V60.3l-4.455,1.061-.636-2.758a2.611,2.611,0,0,0,1.061-2.121,2.308,2.308,0,0,0-2.333-1.909c-1.273,0-1.909,1.061-1.909,2.333a1.8,1.8,0,0,0,1.485,1.7v2.97l-4.243,1.061-1.909-3.606a3.059,3.059,0,0,0,.636-2.758,2.483,2.483,0,1,0-4.667,1.7,2.608,2.608,0,0,0,2.333,1.485l1.061,3.394a16.913,16.913,0,0,0-3.394,1.7L634.875,62a2.435,2.435,0,0,0-.849-2.546,2.419,2.419,0,1,0-2.97,3.818,2.274,2.274,0,0,0,2.546.212l3.182,2.97A7.166,7.166,0,0,0,635.512,69h-3.818a2.284,2.284,0,0,0-2.121-1.7,2.554,2.554,0,0,0-.424,5.091,2.437,2.437,0,0,0,2.333-1.273l3.606.636a13.047,13.047,0,0,0,.212,2.758h0c.212.636.212,1.061.424,1.7l-3.606,1.909a2.963,2.963,0,0,0-3.182-.636,3.092,3.092,0,1,0,2.333,5.728,3.02,3.02,0,0,0,1.909-2.758l4.243-1.273a10.318,10.318,0,0,0,2.97,2.333l-1.061,1.909a1.711,1.711,0,0,0-1.909.636,1.825,1.825,0,0,0,2.97,2.121,2.509,2.509,0,0,0,.212-2.121l1.909-1.909a11.384,11.384,0,0,0,4.667.212l.424,4.031a2.595,2.595,0,1,0,3.818,2.121,2.482,2.482,0,0,0-1.7-2.333l.424-4.455,5.091-1.061,1.485,3.818a2.435,2.435,0,0,0-.849,2.546,2.55,2.55,0,0,0,4.879-1.485,2.066,2.066,0,0,0-2.121-1.7L658,80.028l5.515-1.273,2.546,4.031a2.98,2.98,0,0,0-.424,2.97,2.7,2.7,0,1,0,4.879-2.333,2.573,2.573,0,0,0-2.546-1.485l-1.485-3.818a9.217,9.217,0,0,0,3.606-2.546l2.121,1.061c0,.636.212,1.485.849,1.7a2.024,2.024,0,0,0,2.546-.636,1.816,1.816,0,0,0-.636-2.546,1.579,1.579,0,0,0-1.909.212l-1.7-1.273A10.889,10.889,0,0,0,672.848,69l3.818-.849A2.662,2.662,0,0,0,679,69.421a2.432,2.432,0,0,0,2.121-2.758C681.757,65.815,680.484,64.754,679.212,64.967Z" transform="translate(-609.844 -50.085)"/><path class="a" d="M689.581,87.857a2.256,2.256,0,0,0-.424,2.546l-3.182,2.546a6.972,6.972,0,0,0-3.394-1.485V88.069a2.038,2.038,0,0,0,1.485-1.909,2.25,2.25,0,0,0-4.455-.636,2.611,2.611,0,0,0,1.061,2.121l-.636,3.182a11.561,11.561,0,0,0-4.667,1.061l-2.333-3.818a2.191,2.191,0,0,0,.212-2.758,2.514,2.514,0,1,0-4.455,2.333,2.286,2.286,0,0,0,2.333,1.273l1.7,4.667-.849.849-1.7,2.121-1.909-1.485a2.035,2.035,0,0,0-.424-1.909,1.8,1.8,0,0,0-2.546,2.546,2.164,2.164,0,0,0,1.909.424L669,98.04l-2.758,3.606-2.121-1.7a2.311,2.311,0,0,0-.424-2.333,2.1,2.1,0,1,0-2.97,2.97,1.936,1.936,0,0,0,2.333.424l1.909,2.333-2.758,3.394-3.606-1.7a3.024,3.024,0,0,0-1.273-2.546,2.475,2.475,0,1,0,.212,4.031l2.97,2.121a7.935,7.935,0,0,0-1.485,3.394l-4.667.424a2.609,2.609,0,0,0-2.333-1.485,2.333,2.333,0,1,0,0,4.667,2.107,2.107,0,0,0,2.121-1.485l4.455.424a5.872,5.872,0,0,0,.636,2.758l-2.97,2.546a2.589,2.589,0,0,0-2.758,0,2.443,2.443,0,1,0,3.818,1.485l3.182-1.7a5.475,5.475,0,0,0,1.909,1.909h0a3.42,3.42,0,0,0,1.485.849l-1.485,3.606a3.441,3.441,0,0,0-2.97,1.485,2.989,2.989,0,0,0,5.3,2.758,2.879,2.879,0,0,0-.212-3.182l2.546-3.818a11.534,11.534,0,0,0,3.818,0l.212,2.121a1.89,1.89,0,0,0-1.061,1.7,1.808,1.808,0,1,0,2.334-1.909l.212-2.758a9.818,9.818,0,0,0,3.818-2.758l2.758,2.758a2.253,2.253,0,0,0,.424,2.758,2.568,2.568,0,1,0,1.273-4.031l-2.546-3.818,3.394-4.031,3.394,1.909a2.582,2.582,0,0,0,1.061,2.546,2.243,2.243,0,0,0,3.394-.636c.636-1.273.636-2.758-.636-3.394a2.23,2.23,0,0,0-2.758,0l-2.97-2.546,3.606-4.455,4.455,1.7a2.943,2.943,0,0,0,1.485,2.546A2.7,2.7,0,0,0,695.1,106.1a2.98,2.98,0,0,0-2.97.424L688.52,104.4a7.648,7.648,0,0,0,1.273-4.243l2.333-.636a2.068,2.068,0,0,0,1.909.849,1.831,1.831,0,1,0-.636-3.606,2.243,2.243,0,0,0-1.485,1.273l-2.121.212a9.751,9.751,0,0,0-2.121-5.091l2.546-3.182a2.024,2.024,0,0,0,2.546-.636,2.577,2.577,0,0,0,0-3.394C691.915,86.8,690.43,86.8,689.581,87.857Z" transform="translate(-584.15 -12.517)"/><g transform="translate(1.909 65.37)"><path class="a" d="M632.4,90.584Z" transform="translate(-605.459 -70.219)"/><path class="a" d="M649.611,106.993c1.909,1.273,4.031,2.546,5.94,3.818a24.117,24.117,0,0,0,2.758-6.364c-2.333-.424-4.667-1.061-7-1.485a12.1,12.1,0,0,0,0-5.516c2.333-.424,4.667-1.061,7-1.485a17.105,17.105,0,0,0-2.758-6.364c-1.909,1.273-4.031,2.546-5.94,3.818a10.967,10.967,0,0,0-3.818-3.818c1.273-1.909,2.546-4.031,3.818-5.94a24.118,24.118,0,0,0-6.364-2.758c-.424,2.333-1.061,4.667-1.485,7a12.1,12.1,0,0,0-5.515,0c-.424-2.333-1.061-4.667-1.485-7a17.106,17.106,0,0,0-6.364,2.758c1.273,1.909,2.546,4.031,3.818,5.94a10.967,10.967,0,0,0-3.818,3.818c-1.909-1.273-4.031-2.546-5.94-3.818a24.121,24.121,0,0,0-2.758,6.364c2.333.424,4.667,1.061,7,1.485a12.1,12.1,0,0,0,0,5.516c-2.333.424-4.667,1.061-7,1.485a17.106,17.106,0,0,0,2.758,6.364c1.909-1.273,4.031-2.546,5.94-3.818a10.968,10.968,0,0,0,3.818,3.818c-1.273,1.909-2.546,4.031-3.818,5.94a24.12,24.12,0,0,0,6.364,2.758c.424-2.333,1.061-4.667,1.485-7a12.1,12.1,0,0,0,5.515,0c.424,2.333,1.061,4.667,1.485,7a17.1,17.1,0,0,0,6.364-2.758c-1.273-1.909-2.546-4.031-3.818-5.94A10.966,10.966,0,0,0,649.611,106.993Zm-2.97-5.728h0a7.985,7.985,0,0,1-8.7,6.788,7.8,7.8,0,1,1,1.909-15.486c4.243.636,7,4.243,6.788,8.7Z" transform="translate(-619.7 -80.9)"/></g><path class="a" d="M646.612,83.221a9.329,9.329,0,0,0,7.213,5.94,10.328,10.328,0,0,0,2.546-.212,19.073,19.073,0,0,0,2.546-.636l2.546-.424a9.6,9.6,0,0,0,5.091-2.97,5.056,5.056,0,0,0,1.273-2.333,8,8,0,0,0,6.152,4.243s1.273.212,2.758.424l2.546.424a6.89,6.89,0,0,0,5.728-1.273,13.724,13.724,0,0,0,1.909-1.7,7.828,7.828,0,0,0,4.667,6.152,22.067,22.067,0,0,1,2.546,1.061c1.273.636,2.333,1.273,2.333,1.273a9.31,9.31,0,0,0,5.94.636,9.823,9.823,0,0,0,5.091-3.606,7.515,7.515,0,0,0,.849-6.364,8.385,8.385,0,0,0-4.243-5.091s-1.485-.849-2.97-1.485l-2.97-1.273a5.649,5.649,0,0,0-2.546-.636,8.64,8.64,0,0,0-6.788,2.333,4.708,4.708,0,0,0-1.061-2.333,8.723,8.723,0,0,0-5.728-3.606s-1.7-.212-3.182-.424c-1.7-.212-3.182-.424-3.182-.424h-.212a8.829,8.829,0,0,0-6.576,2.121,8.072,8.072,0,0,0-1.909,2.758,7.32,7.32,0,0,0-1.7-1.909,10.518,10.518,0,0,0-4.243-1.7H658.7a24.593,24.593,0,0,0-3.182.636,23.781,23.781,0,0,0-3.182.636,9.046,9.046,0,0,0-5.728,4.243A9.725,9.725,0,0,0,646.612,83.221Zm35.214-7.637a3.737,3.737,0,0,1,2.758,1.909,2.98,2.98,0,0,1,.424,2.97,4.134,4.134,0,0,1-4.455,3.182h-.212s-1.485-.212-2.758-.424c-1.485-.212-2.758-.424-2.758-.424a4.067,4.067,0,0,1-3.606-4.455,3.735,3.735,0,0,1,1.273-2.758,4.463,4.463,0,0,1,3.182-1.061h0s1.485.212,3.182.424A25.627,25.627,0,0,1,681.827,75.584Zm9.758,6.152a3.917,3.917,0,0,1,5.515-2.121s1.485.636,2.758,1.273c1.485.636,2.758,1.273,2.758,1.273a4.127,4.127,0,0,1,2.121,2.546,3.61,3.61,0,0,1-.424,2.97,4.594,4.594,0,0,1-4.031,2.121,3.933,3.933,0,0,1-1.485-.424L696.251,88.1l-2.546-1.273A3.834,3.834,0,0,1,691.585,81.736Zm-40.518-2.758a3.737,3.737,0,0,1,2.758-1.909,25.629,25.629,0,0,1,2.97-.636,25.627,25.627,0,0,0,2.97-.636,3.975,3.975,0,0,1,4.667,3.394,4.034,4.034,0,0,1-3.394,4.455s-1.485.212-2.758.424a17.729,17.729,0,0,0-2.758.636,4.243,4.243,0,0,1-4.879-2.97A3.43,3.43,0,0,1,651.067,78.978Zm24.82-7.637Z" transform="translate(-588.063 -26.761)"/><path class="a" d="M667.025,73.049a7.425,7.425,0,0,1,0-14.849,7.516,7.516,0,0,1,7.425,7.425A7.378,7.378,0,0,1,667.025,73.049Zm0-11.243a4.031,4.031,0,1,0,4.031,4.031A3.9,3.9,0,0,0,667.025,61.806Z" transform="translate(-573.049 -40.985)"/><path class="a" d="M625.8,87.4a7,7,0,1,1,7-7A6.8,6.8,0,0,1,625.8,87.4Zm0-10.819a3.606,3.606,0,0,0,0,7.213,3.717,3.717,0,0,0,3.606-3.606A3.449,3.449,0,0,0,625.8,76.582Z" transform="translate(-618.8 -23.94)"/><path class="a" d="M647.073,117.547a8.273,8.273,0,1,1,0-16.547,8.424,8.424,0,0,1,8.273,8.273A8.15,8.15,0,0,1,647.073,117.547Zm0-13.577a5.091,5.091,0,1,0,5.091,5.091A5.162,5.162,0,0,0,647.073,103.97Z" transform="translate(-596.373 7.009)"/></g></g></svg>