<svg xmlns="http://www.w3.org/2000/svg" width="236.903" height="118.443" viewBox="0 0 236.903 118.443"><defs><style>.a{fill:#06b8c9;}.a,.b{fill-rule:evenodd;}.b,.e{fill:#f8973a;}.c{fill:#0057a1;}.d{fill:#fff;}</style></defs><g transform="translate(-1.831 -2.858)"><path class="a" d="M82.425,63.581V35.73h7.25V57.072H98.73v6.5h-16.3Zm-38.3-10.419H51.33l-2.707-9.205c-.075-.279-.193-.709-.354-1.332s-.354-1.407-.548-2.385c-.161.666-.311,1.332-.473,1.955s-.311,1.214-.473,1.762ZM33.94,63.581,43.145,35.73h9.087l9.205,27.851h-7.25l-1.332-5.016h-10.3l-1.407,5.016Zm34.812,0H61.974V35.73h7.562a28.963,28.963,0,0,1,6.262.43,7.053,7.053,0,0,1,3.05,1.568A8.416,8.416,0,0,1,81.114,40.9a11.583,11.583,0,0,1,.741,4.264,11.749,11.749,0,0,1-.741,4.382,7.267,7.267,0,0,1-2.266,3.093,6.916,6.916,0,0,1-2.664,1.332,20.513,20.513,0,0,1-4.9.4H68.741v9.216Zm0-15.317h1.407a6.938,6.938,0,0,0,3.641-.741,2.964,2.964,0,0,0,1.053-2.589,2.837,2.837,0,0,0-1.02-2.47,6.468,6.468,0,0,0-3.6-.741H68.741v6.541Z" transform="translate(2.379 2.436)"/><path class="a" d="M78.381,93.16A48.894,48.894,0,0,0,97.146,69.734a34.748,34.748,0,0,1-11.01,11.675,35.145,35.145,0,1,1,9.828-48.721c.43.623.827,1.289,1.214,1.923a50.447,50.447,0,0,0-5.059-9.753,49.261,49.261,0,1,0-13.738,68.3" transform="translate(0)"/><path class="b" d="M82.59,83.146A37.553,37.553,0,0,0,93.557,72.018a35.154,35.154,0,1,1,0-41.321c-.118-.161-.193-.311-.311-.473A38.172,38.172,0,1,0,82.59,83.146" transform="translate(1.591 0.766)"/><path class="b" d="M217.856,57.9a6.146,6.146,0,0,0,4.973-2.309,8.564,8.564,0,0,0,2-5.832,8.755,8.755,0,0,0-2-5.875,6.556,6.556,0,0,0-9.989,0,8.953,8.953,0,0,0-1.955,5.875,8.8,8.8,0,0,0,1.923,5.875,6.31,6.31,0,0,0,5.048,2.266m14.21-8.142a14.783,14.783,0,0,1-1.053,5.6,14.609,14.609,0,0,1-3.05,4.7,14.989,14.989,0,0,1-4.662,3.179,13.7,13.7,0,0,1-10.934,0,14.1,14.1,0,0,1-4.576-3.179,13.9,13.9,0,0,1-3.136-4.7,14.893,14.893,0,0,1-1.053-5.6,15.167,15.167,0,0,1,1.053-5.639,13.861,13.861,0,0,1,3.136-4.694,14.071,14.071,0,0,1,4.576-3.169,13.912,13.912,0,0,1,5.489-1.1,13.743,13.743,0,0,1,5.446,1.1,14.224,14.224,0,0,1,7.712,7.862A14.954,14.954,0,0,1,232.066,49.757ZM187.534,63.624h16.294V57.115h-9.012V35.772h-7.282Zm-17.186,0V35.772h7.282V57.115h9.012v6.5H170.348ZM155.236,57.9a6.146,6.146,0,0,0,4.973-2.309,8.564,8.564,0,0,0,2-5.832,8.755,8.755,0,0,0-2-5.875,6.556,6.556,0,0,0-9.989,0,8.953,8.953,0,0,0-1.955,5.875,8.8,8.8,0,0,0,1.923,5.875A6.34,6.34,0,0,0,155.236,57.9Zm14.221-8.142a14.783,14.783,0,0,1-1.053,5.6,14.26,14.26,0,0,1-3.05,4.7,14.989,14.989,0,0,1-4.662,3.179,13.9,13.9,0,0,1-5.446,1.139,13.715,13.715,0,0,1-5.478-1.139,15,15,0,0,1-7.723-7.884,15.37,15.37,0,0,1,0-11.235,13.861,13.861,0,0,1,3.136-4.694,13.8,13.8,0,0,1,10.064-4.264,13.743,13.743,0,0,1,5.446,1.1,14.224,14.224,0,0,1,7.712,7.862A15.167,15.167,0,0,1,169.457,49.757Zm-42.491-1.45h1.375a6.627,6.627,0,0,0,3.641-.741,2.964,2.964,0,0,0,1.053-2.589,2.837,2.837,0,0,0-1.02-2.47,6.3,6.3,0,0,0-3.609-.741h-1.45v6.541Zm0,15.317h-6.821V35.772h7.6a29.224,29.224,0,0,1,6.262.43,7.686,7.686,0,0,1,3.061,1.568,8.458,8.458,0,0,1,2.234,3.169,11.588,11.588,0,0,1,.784,4.264,11.73,11.73,0,0,1-.784,4.382,7.476,7.476,0,0,1-2.234,3.093,7.233,7.233,0,0,1-2.664,1.332,20.752,20.752,0,0,1-4.9.4h-2.546v9.216Zm-35.155,0,9.205-27.851H110.1l9.162,27.851H112.1l-1.375-5.016h-10.3l-1.407,5.016ZM101.992,53.2H109.2L106.493,44c-.075-.279-.193-.709-.354-1.332s-.311-1.407-.548-2.385c-.161.666-.311,1.332-.473,1.955s-.311,1.214-.473,1.762Z" transform="translate(6.667 2.394)"/><path class="c" d="M96.54,69.89h4.178a9.5,9.5,0,0,1,2.6.269,2.9,2.9,0,0,1,1.364.763,2.675,2.675,0,0,1,.623,1.214,10.971,10.971,0,0,1,.161,2.213v1.386a5.88,5.88,0,0,1-.311,2.223,2.16,2.16,0,0,1-1.16,1.074,5.485,5.485,0,0,1-2.2.376h-1.106V85.83H96.54V69.89Zm4.146,2.728v4.06c.118.011.215.011.3.011a.988.988,0,0,0,.795-.279,2.039,2.039,0,0,0,.226-1.171v-1.31a1.518,1.518,0,0,0-.258-1.063A1.628,1.628,0,0,0,100.686,72.618Z" transform="translate(7.018 4.967)"/><rect class="c" width="4.146" height="15.94" transform="translate(114.084 74.857)"/><path class="c" d="M112.12,69.89H116.3a9.64,9.64,0,0,1,2.61.269,2.957,2.957,0,0,1,1.364.763,2.675,2.675,0,0,1,.623,1.214,10.971,10.971,0,0,1,.161,2.213v1.386a5.88,5.88,0,0,1-.311,2.223,2.16,2.16,0,0,1-1.16,1.074,5.485,5.485,0,0,1-2.2.376h-1.117V85.83H112.12Zm4.146,2.728v4.06c.118.011.226.011.3.011a.988.988,0,0,0,.795-.279,2.039,2.039,0,0,0,.226-1.171v-1.31a1.518,1.518,0,0,0-.258-1.063A1.628,1.628,0,0,0,116.266,72.618Z" transform="translate(8.172 4.967)"/><rect class="c" width="4.146" height="15.94" transform="translate(130.819 74.857)"/><path class="c" d="M136.959,69.89V85.83h-3.63l-2.159-7.25v7.25H127.7V69.89h3.469l2.32,7.175V69.89Z" transform="translate(9.327 4.967)"/><path class="c" d="M147.765,75.779h-4.146v-1.45a7.48,7.48,0,0,0-.118-1.719.526.526,0,0,0-.559-.344.532.532,0,0,0-.526.29,4.6,4.6,0,0,0-.14,1.514v7.648a4.452,4.452,0,0,0,.14,1.418.546.546,0,0,0,.548.344.6.6,0,0,0,.612-.387,4.511,4.511,0,0,0,.161-1.493V79.71H142.9V77.283h4.855v8.55h-2.6l-.387-1.139a2.88,2.88,0,0,1-1.074,1.106,3,3,0,0,1-1.525.365,4.016,4.016,0,0,1-1.955-.5,3.6,3.6,0,0,1-1.386-1.257,3.944,3.944,0,0,1-.591-1.568,19.606,19.606,0,0,1-.118-2.47V75.629a16.041,16.041,0,0,1,.247-3.319,3.352,3.352,0,0,1,1.418-1.89,4.975,4.975,0,0,1,3.018-.859,5.542,5.542,0,0,1,3.018.752,3.545,3.545,0,0,1,1.568,1.772,9.307,9.307,0,0,1,.365,2.986v.709Z" transform="translate(10.099 4.943)"/><path class="c" d="M161.461,74.734h-3.845V73.553a2.336,2.336,0,0,0-.15-1.053.538.538,0,0,0-.494-.226.631.631,0,0,0-.569.3,1.767,1.767,0,0,0-.193.924,2.705,2.705,0,0,0,.215,1.2,3.206,3.206,0,0,0,1.171.977,11.964,11.964,0,0,1,3.491,2.7,6.134,6.134,0,0,1,.72,3.394,5.954,5.954,0,0,1-.4,2.513,3.174,3.174,0,0,1-1.536,1.353,6.081,6.081,0,0,1-2.664.548,5.945,5.945,0,0,1-2.836-.634,3.129,3.129,0,0,1-1.547-1.6,8.094,8.094,0,0,1-.365-2.771V80.137H156.3v1.944a2.55,2.55,0,0,0,.161,1.149.629.629,0,0,0,.58.258.661.661,0,0,0,.612-.322,1.8,1.8,0,0,0,.2-.967,2.968,2.968,0,0,0-.387-1.837,12.006,12.006,0,0,0-1.944-1.45,22.678,22.678,0,0,1-2.052-1.482,3.423,3.423,0,0,1-.827-1.278,7.356,7.356,0,0,1,.129-4.758,3.08,3.08,0,0,1,1.514-1.321,5.984,5.984,0,0,1,2.524-.473,6.441,6.441,0,0,1,2.75.526,2.846,2.846,0,0,1,1.5,1.31,6.968,6.968,0,0,1,.365,2.7v.6Z" transform="translate(11.151 4.946)"/><path class="c" d="M171.624,69.89l-3.018,10.172V85.83h-3.835V80.062L161.86,69.89h3.8c.591,3.115.934,5.209,1.01,6.283q.338-2.546,1.149-6.283Z" transform="translate(11.858 4.967)"/><path class="c" d="M180.79,74.734h-3.845V73.553a2.336,2.336,0,0,0-.15-1.053.538.538,0,0,0-.494-.226.631.631,0,0,0-.569.3,1.767,1.767,0,0,0-.193.924,2.705,2.705,0,0,0,.215,1.2,3.206,3.206,0,0,0,1.171.977,11.964,11.964,0,0,1,3.491,2.7,6.134,6.134,0,0,1,.72,3.394,5.954,5.954,0,0,1-.4,2.513,3.174,3.174,0,0,1-1.536,1.353,6.065,6.065,0,0,1-2.653.548,5.945,5.945,0,0,1-2.836-.634,3.129,3.129,0,0,1-1.547-1.6,8.094,8.094,0,0,1-.365-2.771V80.137h3.845v1.944a2.55,2.55,0,0,0,.161,1.149.629.629,0,0,0,.58.258.661.661,0,0,0,.612-.322,1.8,1.8,0,0,0,.2-.967,2.968,2.968,0,0,0-.387-1.837,12.007,12.007,0,0,0-1.944-1.45,22.677,22.677,0,0,1-2.052-1.482,3.423,3.423,0,0,1-.827-1.278,5.5,5.5,0,0,1-.333-2.084,5.741,5.741,0,0,1,.473-2.675,3.08,3.08,0,0,1,1.514-1.321,5.984,5.984,0,0,1,2.524-.473,6.441,6.441,0,0,1,2.75.526,2.846,2.846,0,0,1,1.5,1.31,6.968,6.968,0,0,1,.365,2.7Z" transform="translate(12.584 4.946)"/><path class="c" d="M190.465,69.89v3.19H188V85.83h-4.146V73.08H181.41V69.89Z" transform="translate(13.307 4.967)"/><path class="c" d="M191.1,69.89h6.906v3.19h-2.76V76.1h2.589v3.04h-2.589v3.5h3.04v3.19H191.1Z" transform="translate(14.025 4.967)"/><path class="c" d="M212.061,69.891V85.83h-3.62V75.068L207,85.83h-2.567L202.91,75.315V85.83h-3.62V69.891h5.36c.161.956.322,2.084.494,3.383l.591,4.049.956-7.444h5.37Z" transform="translate(14.632 4.966)"/><path class="c" d="M221.91,74.734h-3.845V73.553a2.336,2.336,0,0,0-.15-1.053.538.538,0,0,0-.494-.226.631.631,0,0,0-.569.3,1.767,1.767,0,0,0-.193.924,2.705,2.705,0,0,0,.215,1.2,3.206,3.206,0,0,0,1.171.977,11.964,11.964,0,0,1,3.491,2.7,6.134,6.134,0,0,1,.72,3.394,5.954,5.954,0,0,1-.4,2.513,3.174,3.174,0,0,1-1.536,1.353,6.081,6.081,0,0,1-2.664.548,5.945,5.945,0,0,1-2.836-.634,3.063,3.063,0,0,1-1.536-1.6,8.094,8.094,0,0,1-.365-2.771V80.137h3.845v1.944a2.55,2.55,0,0,0,.161,1.149.629.629,0,0,0,.58.258.661.661,0,0,0,.612-.322,1.8,1.8,0,0,0,.2-.967,2.968,2.968,0,0,0-.387-1.837,12.007,12.007,0,0,0-1.944-1.45,22.677,22.677,0,0,1-2.052-1.482,3.423,3.423,0,0,1-.827-1.278,5.5,5.5,0,0,1-.333-2.084,5.741,5.741,0,0,1,.473-2.675,3.08,3.08,0,0,1,1.514-1.321,5.984,5.984,0,0,1,2.524-.473,6.441,6.441,0,0,1,2.75.526,2.846,2.846,0,0,1,1.5,1.31,6.968,6.968,0,0,1,.365,2.7v.6Z" transform="translate(15.631 4.946)"/><path class="d" d="M146.94,93.75h.054a1.94,1.94,0,0,1,.687.247h.591a.775.775,0,0,0,.43.129.432.432,0,0,0,.215.365h-.054l.054.043v.247l-.054.043.054.043a10.828,10.828,0,0,0-.956,3.845v.075h.054a27.272,27.272,0,0,1,2.664-3.265c1.042-1.042,1.8-1.557,2.288-1.557l.43.161.322-.043c.279.032.419.1.419.2l.054-.043h.161c0,.075.118.247.365.526v.086l-.054.043.054.043v.043a35.775,35.775,0,0,0-2.825,7.476,3.247,3.247,0,0,1-.215,1.149l.054.118-.054.2.054.29h-.054l-.215.118H151.4l-.054-.043-.054.043h-.054a6.37,6.37,0,0,1-1.224-.816,33.152,33.152,0,0,1,1.278-4.78l1.128-2.728a17.534,17.534,0,0,0-2.825,3.34,4.4,4.4,0,0,0-.591.977c-.107.215-.2.322-.269.322h-.43c-1.246-.526-1.869-1.074-1.869-1.633l-.054-.2.054-.043-.054-.2a8.153,8.153,0,0,1,.43-2.535h-.118l-.956,1.676-1.224,2.653.054.043v.043a9.091,9.091,0,0,0-.526,2l-.064.043h-.054a2.178,2.178,0,0,1-1.278-.773l-.054-.29h.054l-.054-.043a14.393,14.393,0,0,1,1.278-3.641c1.472-2.664,2.481-4,3.072-4" transform="translate(10.43 6.735)"/><path class="d" d="M158.778,96.56l.376.236v.086c.44.354.666.623.666.784v.054a8.42,8.42,0,0,0-.612,1.89,9.5,9.5,0,0,0-.677,2.879l.1.516a1.6,1.6,0,0,0,.806-.236h.473l.14-.086h.193c0,.15.129.226.376.226l.054.043-.1.279.14.193a2.82,2.82,0,0,1-.9.7h-.569q-.548,0-1.8-1.386c-.709.924-1.353,1.386-1.955,1.386a2.989,2.989,0,0,1-1.611-1.3,1.3,1.3,0,0,1-.709-1.063,9.54,9.54,0,0,1,1.568-3.48,4.574,4.574,0,0,1,1.8-1.7h.333c.258,0,.644.29,1.139.881v.322l-.43-.043a3.1,3.1,0,0,0-1.332,1.053,13.639,13.639,0,0,0-2,3.9l-.043.043.086.086.043-.043h.054l.279.086q1.289,0,3.287-4.178l-.043-.043V98.6l.236-.548-.1-.279c.15,0,.29-.376.43-1.117Z" transform="translate(11.214 6.943)"/><path class="d" d="M166.816,93.24l.043.043.043-.043h.086l.354.279.14-.043v.043l.269.752v.043a14.236,14.236,0,0,0-1.031,3.072l-.14.795a2.486,2.486,0,0,1,.183.881h-.043l.043.043v.043a6.806,6.806,0,0,1-.623,1.869l-.043.236.043.043v.043l-.043.043.043.043-.043.236v.881l.043,1.729-.183.086c-.687-.387-1.031-.816-1.031-1.31l-.043-.419a4.872,4.872,0,0,1-2.342,1.536h-.591c-.387,0-.859-.419-1.439-1.257a1.718,1.718,0,0,1-.311-.795h.043l-.043-.043v-.193l.043-.279-.043-.14a6.9,6.9,0,0,1,1.933-3.308,4.4,4.4,0,0,1,2.75-1.353h.269l.365.086c.591-2.417,1.02-3.641,1.3-3.641m-5.618,9.076.14.322-.043.183.043.054h.086c1.106,0,2.288-.934,3.555-2.793l.311-2.234h-.043a1.926,1.926,0,0,0-1.343.784c-.14,0-.677.526-1.622,1.59A5.835,5.835,0,0,0,161.2,102.316Z" transform="translate(11.735 6.697)"/><path class="d" d="M170.6,96.56V96.6l.043-.043h.43c.419,0,.816.387,1.192,1.149l.172.644c0,.741-.87,1.772-2.61,3.061a2.491,2.491,0,0,1-1.364.548h-.387a1.08,1.08,0,0,1-.473-.226l-.043.183c0,.462.086.687.258.687a1.583,1.583,0,0,0,.773.183,10.219,10.219,0,0,0,4.157-1.6h.258c.054,0,.086.064.086.183l.172.043-.043.043v.043l.129.183v.193c-.344.58-.6.892-.773.913a7.031,7.031,0,0,1-3.083,1.289h-.387l-.172.043a3.826,3.826,0,0,1-1.289-.644,3.624,3.624,0,0,1-1.106-2.2v-.183a4.8,4.8,0,0,1,.945-2.524,5.731,5.731,0,0,1,2.137-1.7Zm-2.7,4.082h.043c.5,0,1.429-.655,2.782-1.966a3.03,3.03,0,0,0,.687-1.106l-.043-.043h-.043a2.818,2.818,0,0,0-1.375.548,4.648,4.648,0,0,0-1.16,1.106A4.167,4.167,0,0,0,167.9,100.642Z" transform="translate(12.205 6.943)"/><path class="d" d="M185.159,93.75h.054c.569.451.849.849.849,1.182l-.5,1.267a4.136,4.136,0,0,0-.548,1.139h-.2A1.164,1.164,0,0,1,184,96.2a19.545,19.545,0,0,0-1.407,3.383h.043a18.366,18.366,0,0,1,2.374-.161v.043l.054-.043c.344,0,.644.236.9.72,0,.311-.183.473-.559.473l-.7.086v-.043a20.693,20.693,0,0,0-2.621.419l-.5,2.159.054.043c-.1.709-.215,1.053-.354,1.053h-.054c-.709-.258-1.053-.526-1.053-.806l.054-.043-.054-.215.258-1.772a2.775,2.775,0,0,1-.913.161c-.226-.054-.559-.344-1.01-.892V100.6l2.47-.72a37.929,37.929,0,0,1,1.719-4.576,3.266,3.266,0,0,1,.7-.977h.2l.548.387.054-.043c.118.2.2.3.247.3a4.7,4.7,0,0,0,.354-1.182Z" transform="translate(13.092 6.735)"/><path class="d" d="M189.428,96.56v.064l.032-.064h.376a1.174,1.174,0,0,1,1.085.537c.14,0,.236.183.29.537.129,0,.258.376.376,1.128h-.043l.043.064v.054a8.653,8.653,0,0,1-1.042,2.922l-.806,1.16c-.752.773-1.321,1.16-1.7,1.16h-.365c-.29,0-.709-.333-1.257-1.01a3.937,3.937,0,0,1-.827-2.148l-.043-.064a6.091,6.091,0,0,1,.806-1.633,12.725,12.725,0,0,1,1.117-1.4l.548-.537.043.064a2.8,2.8,0,0,1,1.085-.773l.043.064Zm.333,1.364h.086v.118c-.247,0-.967.677-2.127,2.019a4.433,4.433,0,0,0-1,2.148.506.506,0,0,0,.419.236h.247c.666,0,1.472-.816,2.417-2.438a7.508,7.508,0,0,0,.795-2.256l-.043-.064h-.29C189.922,97.763,189.76,97.838,189.76,97.924Z" transform="translate(13.614 6.943)"/><path class="d" d="M195.015,96.56h.043c.279,0,.666.322,1.171.956a1.762,1.762,0,0,1,.247.816c-.032.4-.075.591-.129.591l.043.043v.269a.24.24,0,0,1-.247.14.376.376,0,0,1-.333-.226q-.193,0-.548-.677l-.043-.183.043-.322h-.043a8,8,0,0,0-2.256,2.084,24.113,24.113,0,0,0-.623,3.34v.322l.086.14-.086.269c-.258,0-.634-.344-1.128-1.042l-.043-.269a25.405,25.405,0,0,1,.58-3.169l-.086-.086v-.086c.14,0,.322-.644.548-1.944l-.043-.043c.032-.548.086-.816.172-.816h.032c.269,0,.569.322.924.956a2.789,2.789,0,0,1,1.719-1.063" transform="translate(14.03 6.943)"/><path class="d" d="M204.211,93.05a2.8,2.8,0,0,1,1.063,1.16,29.011,29.011,0,0,1-1.514,6.337,19.764,19.764,0,0,0-.537,2.277,1.921,1.921,0,0,0,.634.752l.516.548a.421.421,0,0,1-.408.269,3.562,3.562,0,0,0-.924-.311l-.494-.365a1.167,1.167,0,0,1-.666-1.063v-.043a4.267,4.267,0,0,1,.15-1.2l-.043-.043v-.043q.354-1.45,1.611-5.575l-.043-.043c.064,0,.1-.086.1-.269h.054l-.054-.043.15-.494-.043-.043v-.172l.1-.086-.054-.043.054-.226v-.354l.054-.043-.054-.043v-.44l-.054-.215a.558.558,0,0,1,.408-.183" transform="translate(14.824 6.683)"/><path class="d" d="M207.319,96.738h.15a2.624,2.624,0,0,1,.73.548l.311.419-.054.043.054.043v.086a31.189,31.189,0,0,0-1.3,4.017l.054.043-.215,1.278.054.043-.054.226a1.046,1.046,0,0,0,.215.591v.043l-.161.14h-.215c-.87-.5-1.3-.934-1.3-1.278h.054l-.054-.14a15.539,15.539,0,0,1,.569-3.19l.988-2.836Zm.043-2.288a2.361,2.361,0,0,1,1.042.644l-.043.043.258.322v.183c-.032.086-.14.14-.311.14l-.054-.043H208.2l-.054.043c-.7-.591-1.042-.956-1.042-1.1C207.169,94.525,207.255,94.45,207.362,94.45Z" transform="translate(15.099 6.787)"/><path class="d" d="M215.419,93.75h.054c.569.451.849.849.849,1.182l-.5,1.267a4.137,4.137,0,0,0-.548,1.139h-.2a1.164,1.164,0,0,1-.806-1.139,19.545,19.545,0,0,0-1.407,3.383h.043a18.366,18.366,0,0,1,2.374-.161v.043l.054-.043c.344,0,.644.236.9.72,0,.311-.183.473-.559.473l-.7.086v-.043a20.693,20.693,0,0,0-2.621.419l-.5,2.159.054.043c-.1.709-.215,1.053-.354,1.053h-.054c-.709-.258-1.053-.526-1.053-.806l.054-.043-.054-.215.258-1.772a2.775,2.775,0,0,1-.913.161c-.226-.054-.559-.344-1.01-.892V100.6l2.47-.72a37.929,37.929,0,0,1,1.719-4.576,3.266,3.266,0,0,1,.7-.977h.2l.548.387.054-.043c.118.2.2.3.247.3a4.7,4.7,0,0,0,.354-1.182Z" transform="translate(15.334 6.735)"/><path class="d" d="M219.86,96.56V96.6l.043-.043h.43c.419,0,.816.387,1.192,1.149l.172.644c0,.741-.87,1.772-2.61,3.061a2.491,2.491,0,0,1-1.364.548h-.387a1.08,1.08,0,0,1-.473-.226l-.043.183c0,.462.086.687.258.687a1.583,1.583,0,0,0,.773.183,10.219,10.219,0,0,0,4.157-1.6h.258c.054,0,.086.064.086.183l.172.043-.043.043v.043l.129.183v.193c-.344.58-.6.892-.773.913a7.031,7.031,0,0,1-3.083,1.289h-.387l-.172.043a3.826,3.826,0,0,1-1.289-.644,3.624,3.624,0,0,1-1.106-2.2v-.183a4.8,4.8,0,0,1,.945-2.524,5.731,5.731,0,0,1,2.137-1.7Zm-2.7,4.082h.043c.5,0,1.429-.655,2.782-1.966a3.031,3.031,0,0,0,.687-1.106l-.043-.043h-.043a2.818,2.818,0,0,0-1.375.548,4.648,4.648,0,0,0-1.16,1.106A4.167,4.167,0,0,0,217.164,100.642Z" transform="translate(15.855 6.943)"/><path class="e" d="M220.452,108.57c.021,0,.064,0,.075.011-.161-.011-.075-.011-.075-.011" transform="translate(16.198 7.833)"/><path class="e" d="M219.014,108.471h.021l-.226-.011Z" transform="translate(16.078 7.825)"/><path class="e" d="M217.64,108.37c.14.021.526.032.784.054l.043.011h.118c-.311-.021-.7-.043-.945-.064" transform="translate(15.992 7.818)"/><path class="e" d="M216.922,108.28c.043.011-.172-.011.183.021h-.032a1.214,1.214,0,0,0-.15-.021" transform="translate(15.936 7.812)"/><path class="e" d="M217.062,108.3c.15.011-.107-.021,0,0" transform="translate(15.947 7.813)"/><path class="e" d="M216.4,108.251l.2.011c-.043-.011-.226-.021-.15-.021-.2-.011-.172,0-.054.011" transform="translate(15.892 7.809)"/><path class="e" d="M216.22,108.26h0" transform="translate(15.886 7.81)"/><path class="e" d="M216.536,108.271l-.226-.011c.032.011.032.011.1,0-.011.011.032.011.129.011" transform="translate(15.893 7.81)"/><path class="e" d="M216.64,108.28c.118.011.258.021.054.021.387.011.333,0-.054-.021" transform="translate(15.917 7.812)"/><path class="e" d="M217.57,108.38l.15.011h.129a1.837,1.837,0,0,1-.279-.011" transform="translate(15.986 7.819)"/><path class="e" d="M215.22,108.17c-.011,0,.064.021.086.032h.15a2.089,2.089,0,0,1-.236-.032" transform="translate(15.812 7.804)"/><path class="e" d="M215.316,108.19h-.226c.193.011.236.011.226,0" transform="translate(15.803 7.805)"/><path class="e" d="M216.185,108.281h.365l-.44-.011Z" transform="translate(15.878 7.811)"/><path class="e" d="M214.427,108.11h.129l-.226.011Z" transform="translate(15.746 7.799)"/><path class="e" d="M213.93,108.083c.1-.011-.129-.032-.032-.032-.15-.011-.29,0-.408,0a3.536,3.536,0,0,1,.44.032" transform="translate(15.684 7.794)"/><path class="e" d="M213.31,108.05h0" transform="translate(15.671 7.795)"/><path class="e" d="M214.742,108.172a1.164,1.164,0,0,0-.172-.032l.086.021a.21.21,0,0,1,.086.011" transform="translate(15.764 7.801)"/><path class="e" d="M214.663,108.161h0a1.639,1.639,0,0,0-.193-.011,1.744,1.744,0,0,1,.193.011" transform="translate(15.757 7.802)"/><path class="e" d="M214.751,108.17h0" transform="translate(15.776 7.804)"/><path class="e" d="M215.647,108.24c-.129,0-.408,0-.14.021.1-.011-.054-.021.14-.021" transform="translate(15.825 7.809)"/><path class="e" d="M214.86,108.19l.236.021s-.043-.011.021-.011Z" transform="translate(15.786 7.805)"/><path class="e" d="M214.75,108.19h.021Z" transform="translate(15.777 7.805)"/><path class="e" d="M213.714,108.1c-.107,0-.215,0-.344-.011l.408.032c.021-.011.075-.021-.064-.021" transform="translate(15.675 7.798)"/><path class="e" d="M214.161,108.13h0" transform="translate(15.732 7.801)"/><path class="e" d="M212.2,108.03l.021.011.011-.011Z" transform="translate(15.588 7.793)"/><path class="e" d="M213.772,108.12a1.827,1.827,0,0,0,.226.011c-.075,0-.161-.011-.247-.011h.021" transform="translate(15.703 7.8)"/><path class="e" d="M212.98,108.04l.172.021a1.241,1.241,0,0,0-.172-.021" transform="translate(15.646 7.794)"/><path class="e" d="M214.1,108.12h0" transform="translate(15.729 7.8)"/><path class="e" d="M214.11,108.12h.032c0,.011-.021,0-.032,0" transform="translate(15.72 7.8)"/><path class="e" d="M211.869,108.18a1.41,1.41,0,0,1,.516-.011c.226-.011.086-.086-.118-.14-.011.011-.011.021-.247.021.086.021.526.054.322.064a1.508,1.508,0,0,1-.408-.032c.129.032-.4.032-.333.075l.279-.011c.011.021-.086.032-.011.032" transform="translate(15.544 7.793)"/><path class="e" d="M212.67,108.063h.1c-.107-.011-.193-.021-.333-.043-.161,0-.193.011-.2.021l.473.021Z" transform="translate(15.591 7.793)"/><path class="e" d="M213.16,108.081c-.075.021-.311.021-.172.054a2.95,2.95,0,0,0,.365-.011c-.451-.032.14-.011-.193-.043a2.164,2.164,0,0,0,.247.011c-.075-.011-.161-.011-.236-.021h.011c.021,0,.021.011,0,0h-.011c.011,0,0,0-.011.011-.129-.011-.021-.011.021-.011h.011l-.462-.011c.107,0,.215.011.43.021" transform="translate(15.628 7.795)"/><path class="e" d="M215.273,108.281h-.011c-.032-.011-.043-.011.011,0" transform="translate(15.813 7.811)"/><path class="e" d="M215.116,108.264a.82.82,0,0,1,.172,0c.1.011,0,.011,0,.011.064,0,.226,0,.021-.021h-.032a3.208,3.208,0,0,1-.387-.043.975.975,0,0,0,.226.054" transform="translate(15.788 7.807)"/><path class="e" d="M214.127,108.181l-.387-.011.193.032-.011-.011c.226.011.183-.011.2-.011" transform="translate(15.703 7.804)"/><path class="e" d="M212.172,108.021l.054-.021-.226.021Z" transform="translate(15.574 7.791)"/><path class="e" d="M211.707,108l.021-.021-.129.011Z" transform="translate(15.544 7.79)"/><path class="e" d="M185.677,109.56l-.107.043c.054-.021.086-.032.107-.043" transform="translate(13.615 7.907)"/><path class="e" d="M186.421,109.484l.011-.054c-.021.032-.043.054-.011.054" transform="translate(13.677 7.897)"/><path class="e" d="M200.353,107.806c-.161-.054-.354-.129-.333-.064l.054.064a.8.8,0,0,1,.279,0" transform="translate(14.686 7.77)"/><path class="e" d="M192.56,108.494l.054.021c.043-.032.075-.064.107-.086l-.161.064" transform="translate(14.133 7.823)"/><path class="e" d="M192.495,108.833l-.215-.043a.665.665,0,0,0,.215.043" transform="translate(14.112 7.85)"/><path class="e" d="M181.6,110.17l-.118.14c.2-.032.107-.075.118-.14" transform="translate(13.312 7.952)"/><path class="e" d="M206.984,107.862a2.4,2.4,0,0,0-.354-.032c.172.021.311.064.354.032" transform="translate(15.176 7.778)"/><path class="e" d="M185.876,108.48c-.064.021-.1.054-.086.075.064-.021.107-.043.086-.075" transform="translate(13.631 7.827)"/><path class="e" d="M206.25,107.811c.032,0,.054.011.075.011.107,0,.2-.011.333,0a1.293,1.293,0,0,0-.408-.011" transform="translate(15.148 7.776)"/><path class="e" d="M166.843,112.551c-.011,0-.032-.011-.043-.011,0,.021.021.021.043.011" transform="translate(12.224 8.127)"/><path class="e" d="M162.24,111.824c.043-.021.118-.032.183-.054a.485.485,0,0,0-.183.054" transform="translate(11.886 8.07)"/><path class="e" d="M209.84,107.91h0" transform="translate(15.414 7.784)"/><path class="e" d="M210.313,108.05a.111.111,0,0,0-.043.011.065.065,0,0,1,.043-.011" transform="translate(15.445 7.795)"/><path class="e" d="M205.27,108.07h0" transform="translate(15.075 7.796)"/><path class="e" d="M210,107.931l-.14-.011a.835.835,0,0,1,.14.011" transform="translate(15.415 7.785)"/><path class="e" d="M209.97,107.91a.3.3,0,0,1,.1.011s-.011-.011-.1-.011" transform="translate(15.423 7.784)"/><path class="e" d="M209.7,107.91c.064,0,.118.011.172.011-.021,0-.032-.011-.021-.011h-.15" transform="translate(15.403 7.784)"/><path class="e" d="M174.665,110.751c-.011,0-.011-.011-.021-.011-.1.075-.054.054.021.011" transform="translate(12.801 7.994)"/><path class="e" d="M197.79,108.511l.021-.011h-.021Z" transform="translate(14.521 7.828)"/><path class="e" d="M197.44,108.6a.463.463,0,0,1,.376-.075l-.129-.193Z" transform="translate(14.495 7.815)"/><path class="e" d="M185.549,109.945l.279.064c-.3.2-.537.172-.279.29,0-.354,1.02-.161,1.02-.5l.183.054c-.054,0-.054.021-.107.021.354.118.226-.279.666-.279.15.011.269.043.161.1l.333-.118c.1,0,.075.054-.021.064l.516-.086v.011a1.56,1.56,0,0,1,.311-.2c.14.032-.064.043-.021.075l.279-.107c.118.075-.107.172-.3.183.3.29.226-.107.827.021l-.269.064c.193.161.4.075.709.161-.075-.054-.634-.215-.333-.333a.634.634,0,0,0,.365-.064c.011.107.172.064.376.043v.15c.215-.064.193-.14.322-.215a.367.367,0,0,1,.376.183c.4-.021-.29-.15.183-.226a2.423,2.423,0,0,0,.945-.172c.236.021-.032.086.054.118l.193-.129c.054,0,.032.032.032.054.172-.054,0-.14.269-.2.064-.161.569.172.891-.021.086.032-.032.086-.011.129a3.562,3.562,0,0,0,.752-.279l.322.064c-.247-.075.054-.215.311-.322-.086-.043-.161-.075-.215-.1l.419-.1c.054.021.011.064-.054.118a.523.523,0,0,0,.075-.032c.15.032.075.118-.021.193l-.161-.064c-.1.086-.193.172-.161.247a.357.357,0,0,1,.14-.043c-.021.021-.043.043-.032.054s.054-.021.129-.054l.107.129.021-.054.559.043a4.206,4.206,0,0,1,1.343-.483c-.15.107-.021.161-.032.269-.183-.107-.483.086-.806.086.172,0,.14.054.1.086l.569-.15c-.011.1.129.064.279.1-.129-.172.43-.15.655-.215.021.054-.032.118-.322.129.322.118.4-.236.72-.14-.064,0-.107,0-.14.032.161-.064.569-.043.473.011l-.064.011c.473-.011,1.418-.075,1.482-.226a.464.464,0,0,1-.086.2l.816-.5c-.064.118.226.376-.161.473a1.356,1.356,0,0,0,.483-.032c-.075-.011-.193-.161-.1-.172a2.918,2.918,0,0,0,.559.161c-.118-.021.011-.2.183-.2-.032.032.021.172-.043.193l.44-.183c-.107.032-.011.14.086.183-.043-.032.387-.011.5-.032l-.193-.032c.5,0,.494-.247,1-.258-.064.032-.14.2.107.215a2.212,2.212,0,0,1,.956-.473l.086.043.344-.054a11.69,11.69,0,0,1-1.128.494c.193.032.054.054.333.032.1.032-.15.064-.236.075h.655c-.032-.086.5-.107.473-.183l-.709.118c-.032-.086.408-.279.881-.269.118.032-.086.161-.075.183a1.529,1.529,0,0,1,.483-.043l-.193.054c.258.021.419-.118.741-.043.107,0,.322.1.344.054-.172-.086-.215-.376-.1-.451.043.011.569.086.687.129.183.064-.269.172-.118.226a.394.394,0,0,1,.15-.064c.118.021-.043.064.2.054.043-.075.5,0,.118-.064.236-.021.258.011.537,0-.086-.043.258-.172.494-.193-.011.021.043.043.064.054.494,0,.763.043,1.224.043.043.021.269.032.172.064a1.2,1.2,0,0,1,.269-.032c.279.054-.311.011-.107.075a2.309,2.309,0,0,1,.569-.075,1.993,1.993,0,0,0-.666.011c0-.086.354-.161.838-.193.387-.011.161.054.236.043.72.021.612-.118,1.214-.054.236.054.011.086.064.118-.311.011-.483-.032-.687-.032l.258.021a2.7,2.7,0,0,1-.419.011c.193.043,1.214.011,1.772.064.1-.011.269-.021.193-.043h-.172c-.161-.043.333-.032.107-.054a4.239,4.239,0,0,1,.838-.011l.064.043a1.145,1.145,0,0,0-.311-.021,3.317,3.317,0,0,0,.655.021l-.236-.032a6.717,6.717,0,0,1,.827-.021c-.129-.043-.064,0-.279-.054.183.064-.752-.032-.462.043-.215-.064-.365-.043-.644-.1.011.011.1.032-.15.011a.466.466,0,0,0-.054.011h0a.731.731,0,0,1,.129.032c-.118.032-.516.011-.644.032-.15-.011.064-.011-.021-.032l-.2.021c-.021-.032-.387-.064-.043-.086l-.311-.011a3.766,3.766,0,0,0-.591-.032c-.15-.011-.365.032-.247.011l-.483.011v-.011a10.73,10.73,0,0,1-1.536-.043,3.682,3.682,0,0,1-.6,0l-.054-.043a5.426,5.426,0,0,0-.709-.011,6.817,6.817,0,0,0-1.375-.064l-.011.064a7.293,7.293,0,0,0-.806.032l.021.054a11.1,11.1,0,0,1-1.117-.043.473.473,0,0,1,.215,0c-.516-.14-1.074.107-1.536.011a.609.609,0,0,1-.279,0h-.011l-.161-.032a.847.847,0,0,0,.14.032,2.4,2.4,0,0,0-.354.032l-.054-.064h-.032c-.129-.021-.107.032-.032.086-.064.011-.129.032-.172.043-.107-.107-.344.043-.494-.075-.086.064-.666.054-.73.183,0-.021-.043-.021.021-.032a1.432,1.432,0,0,0-.43.011l-.064-.1-.311.14c-.193-.054-.279-.086-.086-.172-.462.129-.376.054-.773.183l.021-.064c-.14.011-.365.107-.451.054-.322-.118-1.568.043-2.4-.064.172.2-.387-.086-.408.086-.054-.054-.161-.075-.032-.118-.408.075-.634-.054-.913.107-.054-.054.086-.086.043-.107-.032.011-.129.054-.172.021s.054-.043.118-.075c-.43.032-.462.193-.483.354a.456.456,0,0,0-.473.064c-.075-.043-.2-.1.054-.129-.15,0-.913-.032-.924.1a.387.387,0,0,0-.247.021c-.333.011-.365,0-.687.032l.1.021c-.118.172-.269.054-.526.1l.011-.021c-.612-.075-.258.075-.859-.021l.043.1c-.043.226-.537-.1-.881.021l.129.054c-.183.1-.559-.279-.752-.29-.043-.021.064-.032.118-.054-.5-.107-.054.15-.419.2-.075-.075.075-.2-.183-.2-.129-.054-.7.3-1.053.172.075.054.161.107-.011.172-.258.043-.73-.183-.956.043-.032-.011-.054-.032-.054-.043-.193.064-.644.14-.752.269-.226-.4-1.235.311-1.267-.075l-.612.075.011-.043a.836.836,0,0,0-.655.236c-.1-.021-.032-.064-.021-.086a1.482,1.482,0,0,0-1.106.258l-.064-.129c-.118.1-.859-.129-1.407.086,0-.021.011-.043.054-.064-.612.226-1.579-.236-1.74.322l-.408.183c.548-.032-.054.236.183.3-.2.064-.569-.086-.311-.15l.043.021c.064-.29-.687-.011-.7-.2-1.063.15-2.127.107-3.136.236l.15.215-.354.032c-.1-.043-.15-.172.1-.193-.15-.118-.4.172-.4.226-.5-.032.15-.3,0-.29l-.2.043.054.021c-.15.118-.15.226-.451.258-.193-.021-.118-.14-.193-.129,0-.021-.032-.021-.118.011l-.44.043.2.172c-.183.118-.419.043-.183.236-.354-.3-1.654.118-1.858.043a1.688,1.688,0,0,1-.849.269c.086.032.172.247-.118.269.021-.483-.559-.118-.849-.419.247.193-.806.183-.419.462-.247,0-.043-.172-.247-.258-.537.269-1.278.086-1.966.269,0,.064.14.15,0,.269l-.43-.258c-.129.054-.054.408-.354.215.043.054.118.129.021.161-1.439-.1-2.75.795-4.275.43.215.1.1.14-.054.172.1.011.032.172.075.269l-.634-.15c-.054.29-.623.14-.623.408l.172-.086c-.183.354.483.612.537,1.01.2-.4.827.354,1.171-.236.118.054-.054.14.011.215.075-.193.215-.247.473-.236l-.021.043a8.412,8.412,0,0,1,1.858-.172l-.1-.172a.675.675,0,0,1,.311.064c.14-.311-.483.086-.365-.258.3.322,1.214-.236,1.45.15.269-.054-.118-.193.15-.247l.1.1.043-.161a.288.288,0,0,1,.311.2c-.043,0-.118.054-.161.064.247.086.623-.172.709-.15l-.269-.011a19.732,19.732,0,0,0,2.277-.623l-.064-.075c.5-.247.44.011,1.02-.161l-.021.021a.786.786,0,0,1,.419-.183c-.129.118.311.129.129.269.559-.258.269-.172.6-.526l.107.107a.571.571,0,0,1,.4-.29c-.226.15.215.161-.032.354.655.161.87-.43,1.214-.086.226-.387-.569-.107-.419-.2-.15-.1.193-.29.4-.29.2-.021.408.387.9.29-.054.011-.054.032-.1.043.2.054.344-.172.591-.075.1-.226.3-.032.3-.3l-.451.129c.247-.107.451-.451.892-.365a.7.7,0,0,1-.226.193c.14.054.236-.086.376-.032,0,.258-.548.14-.795.387.15.086.494-.269.4.032.15-.387.494-.043.795-.354v.15a.669.669,0,0,1,.247-.129l-.15.226c.247-.215.548.054.795-.075-.548.086-.15-.161-.4-.236.644-.3.44.333,1.192.14-.1.032-.4-.032-.247-.118a1.066,1.066,0,0,1,.44.1c.494-.107-.1-.14.107-.258.193.15.236-.107.451-.193l.021.14c.58.011.107-.322.644-.29l-.193.226.258-.1-.032.172a.937.937,0,0,1,.666-.14c-.075-.086,0-.258.258-.3.183.054-.075.15.279.075-.075.1-.15.226-.322.118-.011.043-.064.1-.075.15a1.325,1.325,0,0,0,.6-.075.525.525,0,0,1-.14-.011l.494-.258c.086.043.032.086-.032.14a2.5,2.5,0,0,1,.322-.129c-.021.118,0,.226-.215.311l.483-.193c.043.043.269.1.215.15.279.021.655-.3,1.02-.269a.265.265,0,0,1,.129-.075,2.294,2.294,0,0,0,1.053-.129l.247.15c.311-.086-.333-.193.183-.333.365-.107.161.14.29.172a1,1,0,0,1,.849-.226,1.115,1.115,0,0,1-.333.075m3.931-.5c-.075.032-.226.118-.279.054C189.277,109.354,189.341,109.408,189.481,109.44Zm5.993-.752a.379.379,0,0,1-.247,0A.942.942,0,0,1,195.474,108.688Zm16.8-.773h0C212.1,107.9,212.155,107.9,212.273,107.915Zm.354.032c.032,0,.032-.011.021-.021a.548.548,0,0,1-.193,0A.455.455,0,0,0,212.628,107.947Zm-38.249,2.137.075.032C174.3,110.181,174.336,110.138,174.379,110.085Z" transform="translate(11.82 7.769)"/><path class="e" d="M192.494,108.794a.059.059,0,0,1-.032-.054c-.032.021-.032.043.032.054" transform="translate(14.124 7.846)"/><path class="e" d="M181.611,110.15H181.6a.037.037,0,0,1-.011.021Z" transform="translate(13.32 7.95)"/><path class="e" d="M203.96,108.291a.753.753,0,0,1-.14-.021.788.788,0,0,0,.14.021" transform="translate(14.967 7.811)"/><path class="e" d="M210.876,107.94h-.226a.834.834,0,0,1,.2.021c-.011-.011-.054-.021.021-.021" transform="translate(15.474 7.787)"/><path class="e" d="M212.705,108.181h.107l-.011-.011c-.15-.011-.247,0-.1.011" transform="translate(15.62 7.803)"/><path class="e" d="M211.05,108.05c.021.032.161.021.322.021h-.032c.054-.032-.118-.032-.29-.021" transform="translate(15.503 7.794)"/><path class="e" d="M211.38,108.07h.15c.021-.011-.064,0-.15,0" transform="translate(15.528 7.796)"/><path class="e" d="M209.53,107.923c.075.011.054-.043.086-.021.086-.043-.5.021-.086.021" transform="translate(15.379 7.783)"/><path class="e" d="M211.18,108.143l-.054-.043-.1.032Z" transform="translate(15.502 7.798)"/><path class="e" d="M209.99,108.08l.258.021c0-.011.032-.011.064-.011a1.85,1.85,0,0,0-.322-.011" transform="translate(15.425 7.797)"/><path class="e" d="M210.29,108.09h0Z" transform="translate(15.447 7.798)"/><path class="e" d="M210.858,108.141l-.075-.011-.183-.011Z" transform="translate(15.47 7.8)"/><path class="e" d="M207.45,108.03l-.279.011c-.032.021.043.021.15.021.075-.011.172-.011.129-.032" transform="translate(15.215 7.793)"/><path class="e" d="M208.229,108.152a.57.57,0,0,1-.118-.032l-.011.054Z" transform="translate(15.285 7.8)"/><path class="e" d="M207.474,108.16c-.032.011-.408.043-.054.043.032-.011.311-.032.054-.043" transform="translate(15.223 7.803)"/><path class="e" d="M203.55,108.108h.075l-.021-.118Z" transform="translate(14.947 7.79)"/><path class="e" d="M200.112,108.508c.333.021.075-.1.376-.064.075-.032-.247-.021-.161-.054-.2.043-.312.021-.215.118" transform="translate(14.69 7.82)"/><path class="e" d="M200.3,108.391a.314.314,0,0,1,.1-.021.182.182,0,0,0-.1.021" transform="translate(14.707 7.818)"/><path class="e" d="M161.5,111.753l-.226-.043.172.107Z" transform="translate(11.814 8.066)"/><path class="e" d="M161.183,112.128l-.107-.258-.075.269c.043-.021.14-.064.183-.011" transform="translate(11.794 8.078)"/><path class="e" d="M188.122,109.545l.011-.043c-.032-.032-.086-.032-.183-.032Z" transform="translate(13.791 7.9)"/><path class="e" d="M185.444,109.739h.054l-.107-.129Z" transform="translate(13.602 7.91)"/><path class="e" d="M183.231,110.186c.1-.011.2-.054.311-.064-.215.054-.354-.118-.311.064" transform="translate(13.441 7.947)"/></g></svg>